# xmcd
#
# Track frame offsets:
#	150
#	40675
#	94317
#	131200
#	178650
#
# Disc length: 3014 seconds
# Revision: 0
# Processed by: cddbd v1.5.2PL0 Copyright (c) Steve Scherf et al.
# Submitted via: dBpowerAMP V12.0
#
DISCID=400bc405
DTITLE=Donna Summer - Love Is The Healer
DYEAR=10
DGENRE=House
TTITLE0=Love Is The Healer [Thunderpuss 2000 Club Mix]
TTITLE1=Love Is The Healer [Jonathan Peters Vocal Remix]
TTITLE2=Love Is The Healer [Eric Kupper’s “I Feel Healed” 12” Mix]
TTITLE3=Love Is The Healer [Tim Rex Lunar Vocal Mix]
TTITLE4=Love Is The Healer [Sussex House Tek Mix]
EXTD=
EXTT0=
EXTT1=
EXTT2=
EXTT3=
EXTT4=
PLAYORDER=
